<?xml version="1.0" standalone="no"?>
<!DOCTYPE svg PUBLIC "-//W3C//DTD SVG 20010904//EN"
 "http://www.w3.org/TR/2001/REC-SVG-20010904/DTD/svg10.dtd">
<svg version="1.0" xmlns="http://www.w3.org/2000/svg"
 width="273.000000pt" height="273.000000pt" viewBox="0 0 273.000000 273.000000"
 preserveAspectRatio="xMidYMid meet">
<metadata>
Created by potrace 1.14, written by Peter Selinger 2001-2017
</metadata>
<g transform="translate(0.000000,273.000000) scale(0.100000,-0.100000)"
fill="#000000" stroke="none">
<path d="M1380 2388 c0 -5 -5 -6 -12 -2 -7 5 -8 3 -4 -5 5 -7 0 -19 -10 -27
-11 -9 -13 -13 -4 -9 12 5 12 4 -1 -7 -9 -7 -18 -17 -20 -23 -2 -5 -7 -9 -11
-7 -5 1 -7 -1 -7 -5 4 -22 -3 -41 -21 -61 -12 -12 -17 -22 -13 -22 4 0 1 -6
-8 -13 -9 -7 -19 -21 -21 -32 -2 -11 -10 -19 -17 -17 -8 2 -11 -3 -8 -12 3 -8
-1 -22 -9 -33 -9 -10 -12 -11 -8 -3 4 8 3 12 -1 7 -5 -4 -10 -18 -12 -30 -2
-12 -14 -30 -26 -40 -12 -10 -16 -16 -9 -12 11 6 12 3 3 -14 -7 -11 -14 -21
-17 -21 -3 0 -2 5 2 12 4 7 3 8 -5 4 -6 -4 -9 -12 -5 -17 3 -6 -2 -19 -11 -29
-9 -10 -14 -24 -10 -29 3 -6 -1 -14 -9 -17 -9 -3 -13 -10 -10 -16 3 -5 -2 -19
-13 -30 -10 -12 -12 -18 -6 -14 9 5 11 2 7 -8 -3 -9 -11 -13 -18 -9 -6 3 -8 3
-4 -2 4 -4 2 -15 -5 -23 -10 -13 -9 -14 1 -8 8 5 2 -11 -13 -34 -15 -23 -21
-39 -13 -34 10 6 10 4 -1 -9 -7 -9 -10 -17 -6 -17 4 0 2 -7 -5 -15 -6 -8 -9
-19 -5 -25 3 -5 2 -10 -4 -10 -6 0 -7 -7 -4 -17 4 -9 2 -14 -3 -10 -5 3 -11
-3 -12 -14 -4 -43 -6 -49 -14 -49 -5 0 -7 -4 -3 -9 3 -5 0 -13 -6 -16 -5 -4
-8 -13 -5 -21 3 -8 0 -14 -6 -14 -6 0 -8 -3 -5 -7 4 -3 1 -13 -6 -21 -10 -13
-9 -14 3 -7 13 7 13 6 2 -7 -16 -20 1 -33 20 -16 14 14 48 20 48 9 0 -4 -8
-17 -17 -30 -12 -18 -13 -22 -2 -16 11 7 11 5 -1 -11 -8 -10 -19 -22 -25 -26
-5 -4 -6 -8 -1 -8 4 0 1 -11 -8 -25 -9 -14 -14 -30 -11 -35 3 -6 1 -10 -5 -10
-6 0 -9 -4 -5 -9 3 -5 1 -12 -4 -16 -6 -3 -7 -13 -4 -22 5 -12 3 -14 -7 -8
-10 6 -12 4 -7 -8 3 -10 2 -17 -4 -17 -6 0 -7 -5 -4 -11 4 -5 0 -18 -9 -28
-10 -11 -14 -25 -10 -36 5 -12 4 -16 -3 -12 -7 4 -10 0 -9 -10 2 -15 -11 -51
-35 -96 -5 -10 -7 -22 -4 -27 3 -4 0 -11 -5 -13 -6 -3 -5 -4 2 -3 7 2 12 11
12 20 -2 13 1 14 11 6 9 -8 17 -7 27 2 7 7 20 14 28 16 8 2 16 7 18 12 2 5 10
6 19 3 10 -4 14 -2 10 4 -3 5 0 10 8 10 8 0 15 -5 15 -10 0 -6 3 -7 7 -4 3 4
12 -1 20 -11 8 -9 12 -11 8 -5 -4 9 -1 11 9 7 9 -3 13 -10 10 -15 -3 -5 2 -6
10 -3 9 3 16 1 16 -6 0 -6 5 -8 10 -5 5 3 10 1 10 -5 0 -6 5 -8 10 -5 6 3 10
1 10 -5 0 -7 7 -10 15 -6 8 3 15 1 15 -4 0 -6 9 -10 20 -10 27 0 25 -18 -2
-24 -40 -9 -116 -11 -112 -4 3 4 -18 5 -46 4 -27 -2 -47 0 -45 5 6 9 -75 4
-115 -7 -14 -3 -38 -6 -53 -6 -15 1 -26 -2 -23 -7 6 -9 -121 -7 -131 2 -10 11
-43 8 -43 -4 0 -5 4 -7 10 -4 9 6 14 -8 11 -27 0 -5 4 -8 10 -8 6 0 8 -7 5
-16 -3 -8 -2 -12 3 -9 9 5 27 -32 23 -48 -1 -5 3 -5 9 -1 9 5 10 2 6 -10 -4
-9 -3 -15 1 -12 4 2 15 -9 25 -25 9 -17 12 -27 7 -24 -20 12 -9 -7 18 -32 15
-15 21 -23 13 -18 -9 5 -7 -1 4 -19 17 -25 34 -38 19 -14 -4 7 -3 8 4 4 6 -4
9 -13 6 -20 -3 -8 5 -22 18 -33 13 -10 28 -28 35 -38 6 -11 16 -19 22 -17 6 1
10 -4 9 -10 -2 -7 3 -12 10 -10 8 1 11 -2 7 -8 -8 -13 14 -42 25 -35 4 3 11
-2 14 -11 3 -8 10 -13 15 -10 5 3 12 -1 15 -10 4 -9 13 -14 22 -10 8 3 12 2 9
-4 -6 -10 7 -14 34 -11 7 2 10 -2 7 -7 -5 -9 29 -26 47 -23 4 1 7 -4 7 -10 0
-6 7 -9 15 -5 8 3 15 1 15 -3 0 -5 8 -8 18 -7 9 2 19 0 22 -5 3 -4 17 -9 30
-11 14 -2 30 -6 35 -9 6 -4 18 -5 28 -4 9 2 15 0 12 -4 -2 -4 18 -8 45 -8 28
-1 48 2 46 6 -2 3 30 7 72 8 109 3 113 3 108 11 -2 4 7 8 20 9 45 4 54 6 54
14 0 5 6 6 14 3 8 -3 17 0 21 5 3 6 11 9 16 5 6 -3 17 2 24 12 8 11 15 15 15
10 0 -5 7 -3 15 4 8 7 12 17 9 22 -3 5 2 8 12 6 11 -2 18 2 16 10 -1 6 1 11 5
10 16 -3 43 15 36 25 -3 5 -1 7 5 3 6 -3 23 5 39 20 15 14 21 23 13 19 -8 -4
-4 3 10 14 14 11 31 21 38 21 7 0 11 4 7 9 -3 5 4 12 15 16 11 4 19 9 17 13
-3 4 15 23 39 42 23 19 41 41 39 47 -6 18 5 44 16 37 5 -3 6 1 3 9 -3 8 2 22
11 31 9 9 14 16 10 16 -3 0 0 10 7 22 7 13 12 28 13 33 0 6 5 10 10 10 6 0 16
4 24 9 10 6 12 5 7 -2 -5 -8 -2 -10 8 -6 9 3 13 11 9 17 -4 6 0 8 11 4 13 -5
15 -3 7 12 -6 10 -8 20 -6 23 2 2 -9 4 -25 3 -17 0 -30 -3 -30 -7 0 -9 -51 -5
-67 5 -5 3 -20 5 -31 2 -12 -2 -24 0 -26 4 -3 4 -33 7 -68 6 -35 -1 -68 2 -74
7 -7 5 -28 7 -48 5 -19 -2 -38 -2 -41 1 -10 10 -85 10 -79 1 3 -5 -11 -9 -30
-9 -19 0 -38 5 -41 10 -4 6 -11 8 -16 5 -5 -4 -15 -3 -21 2 -7 4 -29 8 -48 8
-34 0 -35 1 -37 43 -2 26 1 41 7 37 6 -3 10 -1 10 5 0 7 7 10 15 6 8 -3 15 -2
15 2 0 12 48 13 55 2 4 -6 11 -8 16 -4 6 3 18 -1 28 -10 11 -10 25 -14 36 -10
14 6 16 4 10 -6 -6 -10 -4 -12 8 -7 10 4 17 2 17 -4 0 -6 7 -8 16 -5 10 4 13
2 8 -6 -5 -7 -2 -9 8 -5 9 3 21 0 27 -6 8 -8 17 -5 32 9 14 12 19 13 14 4 -7
-12 -6 -13 6 -4 8 5 21 10 29 9 8 -1 21 -3 28 -3 7 -1 10 -6 7 -12 -4 -6 1 -7
11 -3 12 4 15 3 10 -5 -5 -8 -1 -10 10 -5 10 4 15 2 11 -4 -3 -5 0 -10 7 -10
13 0 17 89 4 102 -4 4 -4 14 -1 23 4 9 2 13 -4 9 -5 -4 -15 5 -22 19 -9 20 -9
24 1 18 10 -6 11 -5 1 8 -7 8 -9 19 -5 23 4 5 2 5 -4 2 -7 -4 -15 0 -18 9 -4
10 -2 13 7 9 6 -4 4 0 -5 8 -10 8 -14 17 -10 21 4 4 -2 14 -12 22 -11 8 -16
14 -11 14 4 0 0 9 -9 19 -10 11 -15 25 -11 30 3 6 1 11 -5 11 -6 0 -9 4 -6 9
7 11 -4 42 -13 37 -3 -2 -11 7 -18 20 -8 18 -8 22 0 17 7 -4 5 1 -3 11 -18 23
-21 44 -8 53 7 4 8 1 4 -8 -4 -8 -1 -5 8 5 8 10 13 24 9 29 -4 6 0 8 10 4 13
-5 17 -1 17 14 0 13 4 18 13 13 6 -4 4 2 -6 13 -9 11 -14 23 -10 26 3 4 1 7
-6 7 -7 0 -9 5 -6 10 3 6 1 10 -5 10 -7 0 -10 7 -6 15 3 8 0 15 -6 15 -6 0 -8
3 -5 7 4 3 -1 15 -10 26 -10 11 -12 17 -6 13 9 -5 11 -2 7 8 -3 9 -10 16 -16
16 -5 0 -6 5 -3 10 3 6 1 10 -6 10 -7 0 -10 3 -6 6 3 4 0 19 -8 34 -8 15 -11
30 -8 34 4 3 1 6 -6 6 -7 0 -11 6 -8 14 3 8 0 20 -8 26 -7 6 -12 20 -10 31 2
11 1 18 -3 15 -4 -2 -12 7 -19 20 -8 18 -8 22 0 17 7 -3 4 3 -6 14 -9 11 -14
23 -10 26 3 4 1 7 -6 7 -7 0 -9 5 -6 10 3 6 2 10 -4 10 -6 0 -8 7 -5 15 4 8 1
15 -5 15 -6 0 -11 9 -11 20 0 11 -5 20 -11 20 -6 0 -8 7 -5 16 3 8 2 13 -3 10
-5 -3 -12 1 -15 10 -4 10 -2 13 7 9 6 -4 4 0 -5 8 -10 8 -15 17 -11 20 3 4 1
7 -6 7 -8 0 -11 7 -7 15 3 9 -1 18 -8 21 -8 3 -17 12 -20 20 -4 10 -2 13 7 8
9 -6 9 -5 0 8 -7 8 -9 19 -5 23 4 5 1 5 -5 1 -13 -7 -17 5 -13 34 1 8 -2 12
-6 7 -7 -7 -39 50 -36 66 1 4 -3 7 -9 7 -5 0 -7 5 -4 10 3 6 2 10 -4 10 -6 0
-8 6 -5 13 3 8 -2 14 -11 14 -8 0 -15 -4 -15 -9z"/>
</g>
</svg>
