<svg xmlns="http://www.w3.org/2000/svg" width="666" height="90" fill="none" viewBox="0 0 666 90">
  <g filter="url(#a)">
    <path fill="#4F772D" d="M41.788 0H662v78H4L41.788 0Z"/>
    <path fill="#4F772D" d="M41.788 0H662v78H4L41.788 0Z"/>
    <path fill="#4F772D" d="M41.788 0H662v78H4L41.788 0Z"/>
    <path fill="#4F772D" d="M41.788 0H662v78H4L41.788 0Z"/>
  </g>
  <path fill="#fff" d="m115.484 68 2.168-3.946 15.503-28.183 4.555 4.555 1.569-2.61 13.929-23.217L155.364 11H81l1.421 3.316 7.131 16.64 1.384 3.225 4.916-4.915 17.597 34.717L115.482 68h.002Zm.174-10.179-7.227-14.253 1.84-1.578 5.42 4.642 5.417-4.642 2.211 1.9-7.661 13.931Zm.03-17.447-5.419-4.643-4.046 3.47-7.607-15.01-1.478-2.931-4.593 4.592-4.326-10.098h58.752c-3.399 5.67-6.803 11.339-10.205 17.006l-4.726-4.726-1.526 2.772c-1.619 2.943-3.24 5.883-4.856 8.826l-4.55-3.898-5.42 4.64Z"/>
  <g filter="url(#b)">
    <path fill="#fff" d="M185.8 62h7.296V17.52H185.8V62Zm46.891-12.608c0-16.256-23.552-9.984-23.552-20.032 0-4.288 3.264-6.336 7.488-6.208 4.608.128 7.232 2.88 7.488 5.888h8.064c-.64-7.616-6.656-12.096-15.168-12.096-9.088 0-15.296 4.864-15.296 12.672 0 16.384 23.616 9.408 23.616 20.16 0 3.776-2.88 6.528-8 6.528-5.056 0-7.616-2.944-7.936-6.592h-7.808c0 7.872 6.848 12.736 15.744 12.736 9.92 0 15.36-6.4 15.36-13.056ZM241.3 17.52V62h22.336v-5.888h-15.04V17.52H241.3ZM299.754 62h7.68l-15.936-44.544h-8.448L267.114 62h7.616l3.2-9.088h18.624l3.2 9.088Zm-5.248-15.04h-14.528l7.296-20.672 7.232 20.672Zm49.105-29.504v33.152l-21.952-33.152h-7.296V62h7.296V28.784L343.611 62h7.296V17.456h-7.296Zm31.405.064h-14.528V62h14.528c14.272 0 23.616-8.384 23.616-22.08 0-13.76-9.344-22.4-23.616-22.4Zm-7.232 38.528V23.472h7.232c10.496 0 16.128 6.272 16.128 16.448 0 10.112-5.632 16.128-16.128 16.128h-7.232Zm68.095-6.656c0-16.256-23.552-9.984-23.552-20.032 0-4.288 3.264-6.336 7.488-6.208 4.608.128 7.232 2.88 7.488 5.888h8.064c-.64-7.616-6.656-12.096-15.168-12.096-9.088 0-15.296 4.864-15.296 12.672 0 16.384 23.616 9.408 23.616 20.16 0 3.776-2.88 6.528-8 6.528-5.056 0-7.616-2.944-7.936-6.592h-7.808c0 7.872 6.848 12.736 15.744 12.736 9.92 0 15.36-6.4 15.36-13.056Z"/>
  </g>
  <defs>
    <filter id="a" width="666" height="86" x="0" y="0" color-interpolation-filters="sRGB" filterUnits="userSpaceOnUse">
      <feFlood flood-opacity="0" result="BackgroundImageFix"/>
      <feColorMatrix in="SourceAlpha" result="hardAlpha" values="0 0 0 0 0 0 0 0 0 0 0 0 0 0 0 0 0 0 127 0"/>
      <feOffset dy="4"/>
      <feGaussianBlur stdDeviation="2"/>
      <feComposite in2="hardAlpha" operator="out"/>
      <feColorMatrix values="0 0 0 0 0 0 0 0 0 0 0 0 0 0 0 0 0 0 0.25 0"/>
      <feBlend in2="BackgroundImageFix" result="effect1_dropShadow_186_29"/>
      <feBlend in="SourceGraphic" in2="effect1_dropShadow_186_29" result="shape"/>
    </filter>
    <filter id="b" width="276.656" height="72.081" x="172.511" y="16.944" color-interpolation-filters="sRGB" filterUnits="userSpaceOnUse">
      <feFlood flood-opacity="0" result="BackgroundImageFix"/>
      <feColorMatrix in="SourceAlpha" result="hardAlpha" values="0 0 0 0 0 0 0 0 0 0 0 0 0 0 0 0 0 0 127 0"/>
      <feOffset dy="13.288"/>
      <feGaussianBlur stdDeviation="6.644"/>
      <feComposite in2="hardAlpha" operator="out"/>
      <feColorMatrix values="0 0 0 0 0 0 0 0 0 0 0 0 0 0 0 0 0 0 0.25 0"/>
      <feBlend in2="BackgroundImageFix" result="effect1_dropShadow_186_29"/>
      <feBlend in="SourceGraphic" in2="effect1_dropShadow_186_29" result="shape"/>
    </filter>
  </defs>
</svg>
