<svg xmlns="http://www.w3.org/2000/svg" width="56" height="65" fill="none" viewBox="0 0 56 65">
  <g filter="url(#a)">
    <path fill="#fff" d="M29.664.793a1.937 1.937 0 0 0-.72-.582A2.198 2.198 0 0 0 28 0c-.33 0-.653.072-.944.21-.29.14-.537.34-.72.583l-12 16.032c-.2.268-.315.58-.333.901-.017.322.064.642.235.926.17.284.425.522.735.688.31.165.665.253 1.027.253h.392L8.304 31.118c-.19.27-.294.58-.303.897-.01.318.077.632.25.91.173.279.426.51.734.672a2.19 2.19 0 0 0 1.015.246h.764L4.212 45.514a1.62 1.62 0 0 0-.21.877c.015.304.117.599.296.857.18.259.43.472.728.62.297.148.633.225.974.225h18V57h8v-8.907h18c.341 0 .676-.077.974-.225a1.92 1.92 0 0 0 .728-.62 1.62 1.62 0 0 0 .086-1.734l-6.548-11.67h.764a2.19 2.19 0 0 0 1.015-.247c.308-.162.561-.394.734-.672.173-.278.26-.592.25-.91a1.644 1.644 0 0 0-.303-.897l-8.092-11.525H40c.362 0 .717-.088 1.027-.253a1.89 1.89 0 0 0 .735-.688c.171-.284.252-.604.235-.926a1.653 1.653 0 0 0-.333-.901l-12-16.032ZM21.748 16.95a1.897 1.897 0 0 0-.733-.671A2.19 2.19 0 0 0 20 16.03h-.264L28 4.99l8.264 11.04H36a2.19 2.19 0 0 0-1.015.247 1.897 1.897 0 0 0-.734.671c-.173.278-.26.592-.25.91.01.318.114.628.303.898l8.088 11.525H42c-.341 0-.676.077-.974.225a1.92 1.92 0 0 0-.728.62c-.179.259-.28.554-.296.857a1.62 1.62 0 0 0 .21.877l6.548 11.67H9.236l6.552-11.67a1.62 1.62 0 0 0 .21-.877 1.646 1.646 0 0 0-.296-.857 1.92 1.92 0 0 0-.728-.62 2.195 2.195 0 0 0-.974-.225h-.392l8.088-11.525c.189-.27.293-.58.302-.897a1.629 1.629 0 0 0-.25-.91Z"/>
  </g>
  <defs>
    <filter id="a" width="56" height="65" x="0" y="0" color-interpolation-filters="sRGB" filterUnits="userSpaceOnUse">
      <feFlood flood-opacity="0" result="BackgroundImageFix"/>
      <feColorMatrix in="SourceAlpha" result="hardAlpha" values="0 0 0 0 0 0 0 0 0 0 0 0 0 0 0 0 0 0 127 0"/>
      <feOffset dy="4"/>
      <feGaussianBlur stdDeviation="2"/>
      <feComposite in2="hardAlpha" operator="out"/>
      <feColorMatrix values="0 0 0 0 0 0 0 0 0 0 0 0 0 0 0 0 0 0 0.25 0"/>
      <feBlend in2="BackgroundImageFix" result="effect1_dropShadow_25_58"/>
      <feBlend in="SourceGraphic" in2="effect1_dropShadow_25_58" result="shape"/>
    </filter>
  </defs>
</svg>
