<svg xmlns="http://www.w3.org/2000/svg" width="175" height="106" fill="none" viewBox="0 0 175 106">
  <path fill="#4F772D" d="M10.05 0H175v106H0L10.05 0Z"/>
  <path fill="#4F772D" d="M10.05 0H175v106H0L10.05 0Z"/>
  <path fill="#4F772D" d="M10.05 0H175v106H0L10.05 0Z"/>
  <path fill="#4F772D" d="M10.05 0H175v106H0L10.05 0Z"/>
  <g filter="url(#a)">
    <path fill="#fff" d="M94.284 12.155a2.594 2.594 0 0 0-4.316 0L74.405 35.499a2.594 2.594 0 0 0 2.158 4.03h.508l-10.49 16.783a2.594 2.594 0 0 0 2.2 3.968h.991l-8.497 16.995a2.594 2.594 0 0 0 2.319 3.756h23.344V94h10.375V81.03h23.345a2.591 2.591 0 0 0 2.591-2.478 2.591 2.591 0 0 0-.273-1.277l-8.492-16.995h.991a2.596 2.596 0 0 0 2.593-2.662 2.596 2.596 0 0 0-.393-1.306L107.18 39.53h.509a2.595 2.595 0 0 0 2.158-4.03L94.284 12.154ZM84.017 35.68a2.593 2.593 0 0 0-2.267-1.339h-.342l10.718-16.076 10.717 16.076h-.342a2.596 2.596 0 0 0-2.593 2.662c.012.463.148.914.393 1.307l10.49 16.782h-.509a2.591 2.591 0 0 0-2.591 2.479c-.019.442.074.881.272 1.277l8.493 16.994H67.79l8.498-16.994a2.594 2.594 0 0 0-2.319-3.756h-.508L83.95 38.31a2.594 2.594 0 0 0 .067-2.63Z"/>
  </g>
  <defs>
    <filter id="a" width="70.251" height="91" x="57" y="11" color-interpolation-filters="sRGB" filterUnits="userSpaceOnUse">
      <feFlood flood-opacity="0" result="BackgroundImageFix"/>
      <feColorMatrix in="SourceAlpha" result="hardAlpha" values="0 0 0 0 0 0 0 0 0 0 0 0 0 0 0 0 0 0 127 0"/>
      <feOffset dy="4"/>
      <feGaussianBlur stdDeviation="2"/>
      <feComposite in2="hardAlpha" operator="out"/>
      <feColorMatrix values="0 0 0 0 0 0 0 0 0 0 0 0 0 0 0 0 0 0 0.25 0"/>
      <feBlend in2="BackgroundImageFix" result="effect1_dropShadow_188_30"/>
      <feBlend in="SourceGraphic" in2="effect1_dropShadow_188_30" result="shape"/>
    </filter>
  </defs>
</svg>
